<svg width="0" height="0" class="hidden">
  <symbol fill="none" xmlns="http://www.w3.org/2000/svg" viewBox="0 0 36 36" id="certificate">
    <path d="M27.2216 9.35938L22.6825 4.82031C22.1903 4.32812 21.4794 4 20.8232 4H9.66691C8.19035 4.05469 7.04191 5.20312 7.04191 6.67969V13.0781C6.71379 13.0781 6.38566 13.0234 5.67473 12.8047C5.62004 12.8047 5.51066 12.8047 5.40129 12.8047C5.12785 12.8047 4.85441 12.9141 4.69035 13.0781C3.70598 14.1172 3.76066 14.0625 2.39348 14.4453C2.01066 14.5547 1.73723 14.8281 1.62785 15.2109C1.29973 16.5781 1.29973 16.5234 0.31535 17.5078C0.0419129 17.7812 -0.0674621 18.2188 0.0419129 18.6016C0.424725 19.9141 0.424725 19.9141 0.0419129 21.2266C-0.0674621 21.6094 0.0419129 22.0469 0.31535 22.3203C1.29973 23.3047 1.29973 23.3047 1.62785 24.6172C1.73723 25 2.01066 25.2734 2.39348 25.3828C2.50285 25.4375 2.55754 25.4375 2.66691 25.4375V31.125C2.66691 31.4531 2.77629 31.7266 3.04973 31.8906C3.32316 32.0547 3.65129 32.0547 3.92473 31.9453L7.04191 30.3594L10.1044 31.9453C10.2685 32 10.3779 32 10.5419 32H25.4169C26.8388 32 28.0419 30.8516 28.0419 29.4297V11.2188C28.0419 10.5625 27.7138 9.85156 27.2216 9.35938ZM21.0419 5.80469C21.1513 5.85938 21.3153 5.91406 21.4247 6.02344L26.0185 10.6172C26.1278 10.7266 26.1825 10.8906 26.2372 11.0547H21.0419V5.80469ZM1.8466 21.3359C2.12004 20.1328 2.12004 19.6953 1.8466 18.4922C2.66691 17.6172 2.88566 17.2344 3.21379 16.0312C4.41691 15.7031 4.74504 15.4844 5.62004 14.6094C6.16691 14.7734 6.54973 14.8281 7.04191 14.8281C7.47941 14.8281 7.86223 14.7734 8.4091 14.6094C9.22941 15.4844 9.61223 15.7031 10.8154 16.0312C11.1435 17.2344 11.3075 17.5625 12.1825 18.4922C11.8544 19.6953 11.8544 20.1328 12.1825 21.3359C11.3622 22.2109 11.1435 22.5938 10.8154 23.7969C9.99504 24.0156 9.50285 24.1797 8.73723 24.8359C8.19035 24.6172 7.64348 24.5078 7.04191 24.5078C6.38566 24.5078 5.83879 24.6172 5.29191 24.8906C4.52629 24.2344 4.0341 24.0156 3.21379 23.7969C2.88566 22.5938 2.7216 22.2656 1.8466 21.3359ZM7.42473 28.6094C7.15129 28.5 6.87785 28.5 6.60441 28.6094L4.41691 29.7578V26.4219C4.41691 26.4766 4.41691 26.4766 4.41691 26.4766C4.63566 26.6953 4.9091 26.75 5.12785 26.75C5.3466 26.75 5.51066 26.6953 5.72941 26.6406C6.11223 26.3672 6.54973 26.2578 7.04191 26.2578C7.47941 26.2578 7.91691 26.3672 8.29973 26.5859C8.51848 26.75 8.68254 26.75 8.90129 26.75C9.17473 26.75 9.39348 26.6953 9.61223 26.4766C9.61223 26.4766 9.61223 26.4766 9.66691 26.4219V29.7578L7.42473 28.6094ZM26.2919 29.4297C26.2919 29.8672 25.8544 30.3047 25.4169 30.3047H11.4169V25.4375C11.4716 25.4375 11.5263 25.4375 11.6357 25.3828C12.0185 25.2734 12.2919 25 12.4013 24.6172C12.7294 23.25 12.7294 23.3047 13.7138 22.3203C13.9872 22.0469 14.0966 21.6094 13.9872 21.2266C13.6044 19.9141 13.6044 19.9141 13.9872 18.6016C14.0966 18.2188 13.9872 17.7812 13.7138 17.5078C12.7294 16.5234 12.7294 16.5234 12.4013 15.2109C12.2919 14.8281 12.0185 14.5547 11.6357 14.4453C10.3232 14.0625 10.3232 14.1172 9.33879 13.0781C9.17473 12.9141 8.95598 12.8594 8.79191 12.8047V6.67969C8.79191 6.1875 9.17473 5.75 9.66691 5.75H19.2919V11.4922C19.2919 12.2031 19.8388 12.75 20.6044 12.75H26.2919V29.4297Z" fill="#5C8EE6"></path>
  </symbol>
  <symbol fill="none" xmlns="http://www.w3.org/2000/svg" viewBox="0 0 36 36" id="control">
    <path d="M17.1172 23.25C15.5312 23.25 14.8203 24.125 12.25 24.125C9.625 24.125 8.91406 23.25 7.32812 23.25C3.28125 23.25 0 26.5859 0 30.6328C0 31.3984 0.601562 32 1.36719 32H23.0781C23.8438 32 24.5 31.3984 24.5 30.6328C24.5 26.5859 21.1641 23.25 17.1172 23.25ZM1.75 30.25C1.91406 27.3516 4.375 25.0547 7.32812 25C8.42188 25 9.46094 25.875 12.25 25.875C15.0391 25.875 16.0234 25 17.1172 25C20.0703 25.0547 22.5312 27.3516 22.6953 30.25H1.75ZM4.8125 12.75H5.46875C5.30469 13.3516 5.25 13.8984 5.25 14.5C5.25 18.3828 8.36719 21.5 12.25 21.5C16.0781 21.5 19.25 18.3828 19.25 14.5C19.1953 13.8984 19.1406 13.3516 18.9766 12.75H19.6875C19.9062 12.75 20.125 12.5859 20.125 12.3125V11.4375C20.125 11.2188 19.9062 11 19.6875 11H19.25C19.25 8.21094 17.3359 5.85938 14.7109 5.14844C14.4922 4.49219 13.8359 4.05469 13.125 4H11.375C10.6094 4.05469 9.95312 4.49219 9.73438 5.14844C7.16406 5.85938 5.25 8.21094 5.25 11H4.8125C4.53906 11 4.375 11.2188 4.375 11.4375V12.3125C4.375 12.5859 4.53906 12.75 4.8125 12.75ZM14.875 7.00781C16.4062 7.71875 17.4453 9.25 17.5 11H14.875V7.00781ZM11.375 5.75H13.125V11H11.375V5.75ZM7 11C7 9.25 8.03906 7.71875 9.625 7.00781V11H7ZM7.32812 12.75H17.1719C17.3359 13.2969 17.4453 13.8984 17.5 14.5C17.5 17.3984 15.0938 19.75 12.25 19.75C9.35156 19.75 7 17.3984 7 14.5C7 13.8984 7.10938 13.2969 7.32812 12.75Z" fill="#5C8EE6"></path>
  </symbol>
  <symbol fill="none" xmlns="http://www.w3.org/2000/svg" viewBox="0 0 36 36" id="delivery">
    <path d="M1.75 21.5H20.125C21.0547 21.5 21.875 20.7344 21.875 19.75V7.5C21.875 6.57031 21.0547 5.75 20.125 5.75H1.75C0.765625 5.75 0 6.57031 0 7.5V19.75C0 20.7344 0.765625 21.5 1.75 21.5ZM1.75 7.5H20.125V19.75H1.75V7.5ZM33.9609 15.2656L30.7344 12.0391C30.0781 11.3828 29.2031 11.0547 28.2734 11.0547H24.5C24.0078 11.0547 23.625 11.4375 23.625 11.9297V23.3047H12.4688C11.8125 22.7578 10.9922 22.4297 10.0625 22.4297C8.80469 22.4297 7.71094 22.9766 7 23.9062C6.23438 22.9766 5.14062 22.375 3.9375 22.375C1.75 22.375 0 24.1797 0 26.3125C0 28.5 1.75 30.25 3.9375 30.25C5.14062 30.25 6.23438 29.7031 7 28.7734C7.71094 29.7031 8.80469 30.25 10.0625 30.25C12.1953 30.25 14 28.5 14 26.3125C14 25.875 13.8906 25.4375 13.7266 25H24.5547C24.3906 25.7656 24.4453 26.5312 24.7188 27.3516C25.1562 28.7188 26.3594 29.8125 27.7812 30.1406C30.625 30.8516 33.25 28.6641 33.25 25.875C33.25 25.6016 33.1953 25.3281 33.1406 25H34.125C34.5625 25 35 24.6172 35 24.125V17.7266C35 16.7969 34.6172 15.9219 33.9609 15.2656ZM3.9375 28.5C2.67969 28.5 1.75 27.5703 1.75 26.3125C1.75 25.1094 2.67969 24.125 3.9375 24.125C5.14062 24.125 6.125 25.1094 6.125 26.3125C6.125 27.5703 5.14062 28.5 3.9375 28.5ZM10.0625 28.5C8.80469 28.5 7.875 27.5703 7.875 26.3125C7.875 25.1094 8.80469 24.125 10.0625 24.125C11.2656 24.125 12.25 25.1094 12.25 26.3125C12.25 27.5703 11.2656 28.5 10.0625 28.5ZM25.375 12.75H28.2734C28.7656 12.75 29.2031 12.9688 29.5312 13.2969L32.4844 16.25H25.375V12.75ZM28.875 28.5C27.3984 28.5 26.25 27.3516 26.25 25.875C26.25 24.4531 27.3984 23.25 28.875 23.25C30.2969 23.25 31.5 24.4531 31.5 25.875C31.5 27.3516 30.2969 28.5 28.875 28.5ZM33.25 23.25H32.3203C31.5547 22.2109 30.2969 21.5 28.875 21.5C27.3984 21.5 26.1953 22.2109 25.375 23.25V18H33.25V23.25ZM5.6875 18H6.5625C6.78125 18 7 17.8359 7 17.5625V9.6875C7 9.46875 6.78125 9.25 6.5625 9.25H5.6875C5.41406 9.25 5.25 9.46875 5.25 9.6875V17.5625C5.25 17.8359 5.41406 18 5.6875 18ZM10.9375 18H11.8125C12.0312 18 12.25 17.8359 12.25 17.5625V9.6875C12.25 9.46875 12.0312 9.25 11.8125 9.25H10.9375C10.6641 9.25 10.5 9.46875 10.5 9.6875V17.5625C10.5 17.8359 10.6641 18 10.9375 18ZM16.1875 18H17.0625C17.2812 18 17.5 17.8359 17.5 17.5625V9.6875C17.5 9.46875 17.2812 9.25 17.0625 9.25H16.1875C15.9141 9.25 15.75 9.46875 15.75 9.6875V17.5625C15.75 17.8359 15.9141 18 16.1875 18Z" fill="#5C8EE6"></path>
  </symbol>
  <symbol fill="none" xmlns="http://www.w3.org/2000/svg" viewBox="0 0 148 52" id="logo-light">
    <g clip-path="url(#clip0_191_1609)" filter="url(#filter0_d_191_1609)">
      <path fill-rule="evenodd" clip-rule="evenodd" d="M25.9928 4.89351C28.2857 4.89351 30.4733 5.34481 32.4715 6.16361V12.3539V21.8184C32.4715 25.3669 29.5949 28.2436 26.0465 28.2436C24.5375 28.2436 23.15 27.7235 22.0536 26.8527V32.5405C23.2966 33.0038 24.6421 33.2569 26.0465 33.2569C33.0248 33.2569 37.5146 27.7473 37.5146 21.0594V3.25613C34.1638 1.19127 30.2173 0 25.9928 0C13.8466 0 4 9.84658 4 21.9928C4 28.9293 7.21131 35.1156 12.2283 39.1466V32.1397C10.1324 29.3013 8.89351 25.7918 8.89351 21.9928C8.89351 12.5492 16.5492 4.89351 25.9928 4.89351Z" fill="white"></path>
      <path fill-rule="evenodd" clip-rule="evenodd" d="M26.0619 39.1065C23.7688 39.1065 21.5811 38.6552 19.583 37.8364V31.6461V22.1815C19.583 18.6331 22.4597 15.7563 26.0082 15.7563C27.5171 15.7563 28.9044 16.2765 30.0008 17.1473V11.4594C28.7578 10.9962 27.4125 10.7431 26.0082 10.7431C19.0299 10.7431 14.54 16.2527 14.54 22.9406V40.7438C17.8906 42.8087 21.8371 44 26.0619 44C38.2081 44 48.0546 34.1534 48.0546 22.0072C48.0546 15.0707 44.8433 8.88436 39.8264 4.85339V11.8603C41.9222 14.6987 43.1611 18.2082 43.1611 22.0072C43.1611 31.4508 35.5055 39.1065 26.0619 39.1065Z" fill="#5C8EE6"></path>
      <path d="M75.3035 22.5536C75.3035 22.6595 75.2612 22.7443 75.1976 22.8079C75.1339 22.8716 75.028 22.9138 74.9221 22.9138H72.676C72.5701 22.9138 72.4853 22.8716 72.4216 22.8079C72.3582 22.7443 72.2946 22.6595 72.2735 22.5536L71.2985 18.5275H66.4249L65.45 22.5536C65.4289 22.6595 65.3655 22.7443 65.3019 22.8079C65.2382 22.8716 65.1534 22.9138 65.0475 22.9138H62.8014C62.6955 22.9138 62.5896 22.8716 62.5259 22.8079C62.4622 22.7443 62.42 22.6595 62.42 22.5536C62.42 22.5324 62.42 22.5324 62.4411 22.5113C62.4411 22.4902 62.4411 22.4688 62.4411 22.4476L65.9165 9.16164C66.0435 8.67402 66.2342 8.27152 66.4672 7.99603C66.7004 7.72055 66.9759 7.48762 67.2514 7.33916C67.5269 7.19102 67.8023 7.10623 68.099 7.06367C68.3744 7.02144 68.6288 7 68.8617 7C69.095 7 69.349 7.02144 69.6456 7.06367C69.9211 7.10623 70.218 7.19102 70.4935 7.33916C70.769 7.48762 71.0231 7.72055 71.2563 7.99603C71.4892 8.27152 71.6799 8.67402 71.8073 9.16164L75.2824 22.4476C75.2824 22.4688 75.2823 22.4902 75.3035 22.5113C75.3035 22.5324 75.3035 22.5324 75.3035 22.5536ZM69.2009 9.81852C69.1795 9.69117 69.1372 9.60638 69.095 9.54304C69.0524 9.50048 68.9676 9.47936 68.8617 9.47936C68.7558 9.47936 68.671 9.50048 68.6288 9.54304C68.5862 9.60638 68.544 9.69117 68.5226 9.81852L66.997 16.1118H70.7265L69.2009 9.81852Z" fill="white"></path>
      <path d="M85.7927 22.3417C85.7927 22.4902 85.7712 22.5961 85.7079 22.6594C85.6442 22.7231 85.5172 22.7653 85.3687 22.7868C85.2206 22.829 84.9873 22.8716 84.7119 22.8927C84.4153 22.9349 84.0975 22.9775 83.7584 22.9986C83.4192 23.0197 83.0804 23.0408 82.7201 23.0623C82.3598 23.0834 82.0418 23.0834 81.7663 23.0834C81.0672 23.0834 80.4314 23.0197 79.8382 22.9138C79.2447 22.8079 78.7363 22.575 78.2912 22.2569C77.8462 21.9392 77.5073 21.5153 77.253 20.9432C76.9986 20.3711 76.8716 19.6505 76.8716 18.7393V7.59352C76.8716 7.48761 76.9138 7.38139 76.9986 7.29692C77.0834 7.21213 77.1893 7.16958 77.2955 7.16958H79.3932C79.4991 7.16958 79.605 7.21213 79.6898 7.29692C79.7746 7.38139 79.8171 7.48761 79.8171 7.59352V18.7393C79.8171 19.4387 79.9441 19.926 80.1771 20.1804C80.4103 20.4344 80.8554 20.5618 81.4697 20.5618H85.3687C85.4746 20.5618 85.5805 20.604 85.6653 20.6888C85.7501 20.7736 85.7927 20.8795 85.7927 20.9854V22.3417ZM90.7511 22.4902C90.7511 22.5961 90.7085 22.702 90.6237 22.7868C90.5393 22.8716 90.433 22.9138 90.3271 22.9138H88.2295C88.1236 22.9138 88.0177 22.8716 87.9329 22.7868C87.8481 22.702 87.8055 22.5961 87.8055 22.4902V7.57241C87.8055 7.46618 87.8481 7.36027 87.9329 7.27548C88.0177 7.21214 88.1236 7.16958 88.2295 7.16958H90.3271C90.433 7.16958 90.5393 7.21214 90.6237 7.27548C90.7085 7.36027 90.7511 7.46618 90.7511 7.57241V22.4902ZM105.626 22.5535C105.626 22.6594 105.584 22.7442 105.52 22.8079C105.457 22.8716 105.351 22.9138 105.245 22.9138H102.999C102.893 22.9138 102.808 22.8716 102.744 22.8079C102.681 22.7442 102.617 22.6594 102.596 22.5535L101.621 18.5275H96.7478L95.7732 22.5535C95.7517 22.6594 95.6884 22.7442 95.6247 22.8079C95.561 22.8716 95.4766 22.9138 95.3703 22.9138H93.1242C93.0183 22.9138 92.9124 22.8716 92.8487 22.8079C92.7854 22.7442 92.7428 22.6594 92.7428 22.5535C92.7428 22.5324 92.7428 22.5324 92.7639 22.5113C92.7639 22.4902 92.7639 22.4687 92.7639 22.4476L96.2393 9.16164C96.3664 8.67402 96.5571 8.27152 96.7903 7.99603C97.0232 7.72055 97.2987 7.48762 97.5742 7.33916C97.8497 7.19102 98.1252 7.10623 98.4218 7.06367C98.6973 7.02144 98.9516 7 99.1846 7C99.4178 7 99.6719 7.02144 99.9688 7.06367C100.244 7.10623 100.541 7.19102 100.816 7.33916C101.092 7.48762 101.346 7.72055 101.579 7.99603C101.812 8.27152 102.003 8.67402 102.13 9.16164L105.605 22.4476C105.605 22.4687 105.605 22.4902 105.626 22.5113C105.626 22.5324 105.626 22.5324 105.626 22.5535ZM99.5237 9.81851C99.5026 9.69117 99.46 9.60638 99.4178 9.54303C99.3753 9.50047 99.2905 9.47936 99.1846 9.47936C99.0787 9.47936 98.9939 9.50047 98.9516 9.54303C98.9091 9.60638 98.8668 9.69117 98.8457 9.81851L97.3198 16.1118H101.049L99.5237 9.81851ZM119.527 22.0662C119.527 22.2995 119.442 22.5113 119.294 22.6594C119.124 22.829 118.913 22.9138 118.679 22.9138H116.539C116.285 22.9138 116.052 22.8716 115.84 22.8079C115.607 22.7442 115.416 22.5324 115.247 22.151L110.542 11.8314C110.479 11.7255 110.415 11.6618 110.352 11.6618C110.288 11.6618 110.246 11.7255 110.246 11.8314V22.4902C110.246 22.5961 110.203 22.702 110.14 22.7868C110.055 22.8716 109.949 22.9138 109.843 22.9138H108.042C107.936 22.9138 107.83 22.8716 107.745 22.7868C107.661 22.702 107.618 22.5961 107.618 22.4902V8.01714C107.618 7.78422 107.703 7.57241 107.872 7.40283C108.021 7.25437 108.233 7.16958 108.466 7.16958H110.754C110.988 7.16958 111.157 7.21213 111.305 7.29692C111.433 7.38139 111.56 7.57241 111.687 7.84757L116.624 18.7393C116.666 18.8452 116.73 18.9089 116.794 18.9089C116.857 18.9089 116.899 18.8452 116.899 18.7182V7.57241C116.899 7.29692 117.027 7.16958 117.302 7.16958H119.124C119.4 7.16958 119.527 7.29692 119.527 7.57241V22.0662ZM132.072 22.2569C132.072 22.4054 132.029 22.5113 131.945 22.575C131.86 22.6383 131.754 22.702 131.605 22.7442C131.521 22.7653 131.372 22.8079 131.181 22.829C130.97 22.8716 130.715 22.9138 130.419 22.9564C130.122 22.9775 129.783 23.0197 129.423 23.0408C129.063 23.0623 128.66 23.0834 128.257 23.0834C127.622 23.0834 126.944 22.9986 126.244 22.8079C125.545 22.6172 124.888 22.278 124.316 21.7907C123.723 21.3034 123.256 20.6466 122.854 19.8201C122.472 18.9937 122.282 17.9128 122.282 16.5991V13.4843C122.282 12.1494 122.472 11.0686 122.854 10.221C123.256 9.39457 123.723 8.7377 124.316 8.2504C124.888 7.76311 125.545 7.44506 126.244 7.25436C126.944 7.08478 127.622 7 128.257 7C128.66 7 129.063 7.02144 129.423 7.04255C129.783 7.06367 130.122 7.10623 130.419 7.12734C130.715 7.16958 130.97 7.21213 131.181 7.25436C131.372 7.29692 131.521 7.31804 131.605 7.33916C131.754 7.38139 131.86 7.42394 131.945 7.48761C132.029 7.55096 132.072 7.67831 132.072 7.82645V9.24643C132.072 9.37345 132.05 9.47936 131.987 9.56415C131.923 9.64894 131.796 9.69117 131.648 9.69117H131.605C131.415 9.67005 131.203 9.64894 130.948 9.62782C130.673 9.60638 130.398 9.60638 130.101 9.58526C129.804 9.56415 129.507 9.56415 129.19 9.54303C128.872 9.52191 128.575 9.52192 128.3 9.52192C127.855 9.52192 127.431 9.58527 127.071 9.71262C126.689 9.86075 126.371 10.0726 126.096 10.3695C125.821 10.6872 125.609 11.0897 125.46 11.5984C125.312 12.1069 125.227 12.7426 125.227 13.4843V16.5991C125.227 17.3408 125.312 17.9554 125.46 18.4638C125.609 18.9725 125.821 19.3751 126.096 19.6931C126.371 20.0108 126.689 20.2226 127.071 20.35C127.431 20.4981 127.855 20.5618 128.3 20.5618C128.575 20.5618 128.872 20.5618 129.19 20.5407C129.507 20.5192 129.804 20.5192 130.101 20.4981C130.398 20.477 130.673 20.4559 130.948 20.4344C131.203 20.4133 131.415 20.4133 131.605 20.3922H131.648C131.796 20.3922 131.923 20.4344 131.987 20.5192C132.05 20.604 132.072 20.7099 132.072 20.8373V22.2569ZM144.002 22.3417C144.002 22.4902 143.98 22.5961 143.917 22.6594C143.853 22.7231 143.726 22.7653 143.578 22.7868C143.408 22.8079 143.218 22.8501 143.027 22.8716C142.815 22.9138 142.56 22.9563 142.264 22.9775C141.946 22.9986 141.586 23.0408 141.162 23.0623C140.717 23.0834 140.187 23.0834 139.552 23.0834C138.852 23.0834 138.217 23.0197 137.623 22.9138C137.03 22.8079 136.5 22.575 136.076 22.2569C135.631 21.9392 135.271 21.5153 135.017 20.9432C134.763 20.3711 134.635 19.6505 134.635 18.7393V11.3441C134.635 10.4328 134.763 9.71261 135.017 9.1402C135.271 8.56812 135.631 8.12305 136.076 7.80533C136.5 7.48761 137.03 7.27548 137.623 7.16958C138.217 7.06367 138.852 7 139.552 7C140.187 7 140.717 7 141.162 7.02144C141.586 7.04255 141.946 7.08478 142.264 7.10622C142.56 7.12734 142.815 7.16958 143.027 7.19102C143.218 7.23325 143.408 7.27548 143.578 7.29692C143.726 7.31804 143.853 7.36027 143.917 7.42394C143.98 7.48761 144.002 7.59352 144.002 7.74166V9.09797C144.002 9.20387 143.959 9.30978 143.874 9.39457C143.79 9.47936 143.684 9.52192 143.578 9.52192H139.255C138.64 9.52192 138.196 9.64894 137.962 9.90331C137.708 10.1574 137.581 10.6447 137.581 11.3441V13.6327H143.324C143.429 13.6327 143.535 13.675 143.62 13.7598C143.705 13.8446 143.747 13.9505 143.747 14.0564V15.5819C143.747 15.6882 143.705 15.7941 143.62 15.8789C143.535 15.9636 143.429 16.0059 143.324 16.0059H137.581V18.7393C137.581 19.4387 137.708 19.926 137.962 20.1804C138.196 20.4344 138.64 20.5618 139.255 20.5618H143.578C143.684 20.5618 143.79 20.604 143.874 20.6888C143.959 20.7736 144.002 20.8795 144.002 20.9854V22.3417Z" fill="white"></path>
      <path d="M69.8759 29.9868C69.8759 30.5816 69.7677 31.0816 69.565 31.4867C69.3489 31.8921 69.0653 32.2167 68.7002 32.4597C68.349 32.7167 67.9303 32.8921 67.4706 32.9866C66.9979 33.0948 66.4979 33.149 65.9707 33.149C65.7953 33.149 65.5925 33.1354 65.3492 33.1218C65.1195 33.1084 64.9168 33.1084 64.768 33.0948V36.6215C64.768 36.6891 64.7411 36.7567 64.7005 36.8109C64.6465 36.8648 64.579 36.8918 64.5114 36.8918H63.1603C63.0927 36.8918 63.0251 36.8648 62.9709 36.8109C62.917 36.7567 62.89 36.6891 62.89 36.6215V27.3249C62.89 27.1897 62.9306 27.0952 63.0115 27.0276C63.0791 26.9737 63.1873 26.9331 63.3224 26.9198C63.6736 26.8655 64.079 26.8249 64.5384 26.7846C64.998 26.7573 65.4844 26.744 65.9843 26.744C66.4979 26.744 66.9979 26.7979 67.4706 26.8925C67.9303 26.987 68.349 27.1628 68.7002 27.4061C69.0653 27.6494 69.3489 27.9736 69.565 28.3654C69.7677 28.7709 69.8759 29.2708 69.8759 29.8653V29.9868ZM67.9978 29.8517C67.9978 29.2845 67.8354 28.879 67.4979 28.6494C67.16 28.406 66.6464 28.2845 65.9707 28.2845C65.9031 28.2845 65.8086 28.2845 65.7004 28.2845C65.5789 28.2978 65.4707 28.2978 65.3492 28.2978C65.2277 28.3115 65.1195 28.3115 65.025 28.3115C64.9168 28.3248 64.8356 28.3248 64.768 28.3385V31.5679C64.8223 31.5679 64.9032 31.5679 65.025 31.5679C65.1332 31.5816 65.2547 31.5816 65.3762 31.5816C65.498 31.5949 65.6059 31.5949 65.7277 31.5949C65.8355 31.6085 65.9168 31.6085 65.9707 31.6085C66.7003 31.6085 67.2276 31.4734 67.5382 31.2031C67.8491 30.9328 67.9978 30.5274 67.9978 29.9735V29.8517ZM78.6456 36.7297C78.6456 36.8379 78.5917 36.8918 78.4835 36.8918H76.8348C76.7672 36.8918 76.7133 36.8648 76.6727 36.8109C76.6324 36.7567 76.6051 36.6891 76.5648 36.6215L74.6189 33.0272H74.4298C74.2541 33.0272 74.0377 33.0139 73.808 33.0003C73.5784 32.9866 73.3756 32.9866 73.2272 32.9733V36.6215C73.2272 36.6891 73.1999 36.7567 73.1596 36.8109C73.1054 36.8648 73.0378 36.8918 72.9702 36.8918H71.6191C71.5515 36.8918 71.484 36.8648 71.43 36.8109C71.3758 36.7567 71.3488 36.6891 71.3488 36.6215V27.3249C71.3488 27.1897 71.3894 27.0952 71.4703 27.0276C71.5379 26.9737 71.6461 26.9331 71.7812 26.9198C72.1324 26.8655 72.5378 26.8249 72.9975 26.7846C73.4569 26.7573 73.9432 26.744 74.4431 26.744C74.9568 26.744 75.4567 26.7979 75.9297 26.8925C76.3891 27.0007 76.8078 27.1764 77.1593 27.4061C77.5242 27.6358 77.8078 27.9467 78.0241 28.3385C78.2268 28.7302 78.3347 29.2169 78.3347 29.7977V29.9192C78.3347 30.6356 78.1726 31.2301 77.8347 31.6761C77.5105 32.1218 77.0645 32.4597 76.4973 32.676L78.6186 36.6215C78.6319 36.6488 78.6456 36.6891 78.6456 36.7297ZM76.4567 29.7977C76.4567 29.2845 76.2945 28.9196 75.9567 28.6896C75.6188 28.46 75.1052 28.3521 74.4298 28.3521C74.3623 28.3521 74.2674 28.3521 74.1595 28.3521C74.0377 28.3654 73.9299 28.3654 73.808 28.3654C73.6865 28.3791 73.5784 28.3791 73.4838 28.3791C73.3756 28.3924 73.2948 28.3924 73.2272 28.406V31.4464C73.2811 31.4464 73.3623 31.4464 73.4838 31.4464C73.592 31.4597 73.7135 31.4598 73.835 31.4598C73.9568 31.4734 74.0647 31.4734 74.1865 31.4734C74.2947 31.4867 74.3756 31.4867 74.4298 31.4867C75.1322 31.4867 75.6458 31.3789 75.97 31.1492C76.2945 30.9195 76.4567 30.5141 76.4567 29.9192V29.7977Z" fill="#5C8EE6"></path>
      <path d="M87.3208 32.7842C87.3208 33.5272 87.2259 34.176 87.0368 34.7029C86.8341 35.2298 86.5775 35.6622 86.226 36.0001C85.8884 36.3379 85.483 36.5946 85.01 36.7567C84.5507 36.9188 84.037 37 83.4831 37C82.9156 37 82.402 36.9188 81.9426 36.7567C81.4696 36.5946 81.0642 36.3379 80.7267 36.0001C80.3888 35.6622 80.1185 35.2298 79.9291 34.7029C79.7264 34.176 79.6319 33.5272 79.6319 32.7842V30.9598C79.6319 30.2168 79.7264 29.5817 79.9291 29.0411C80.1185 28.5142 80.3888 28.0682 80.7267 27.7303C81.0642 27.3925 81.4696 27.1495 81.9426 26.987C82.402 26.8249 82.9156 26.744 83.4831 26.744C84.037 26.744 84.5507 26.8249 85.01 26.987C85.483 27.1495 85.8884 27.3925 86.226 27.7303C86.5775 28.0682 86.8341 28.5142 87.0368 29.0411C87.2259 29.5817 87.3208 30.2168 87.3208 30.9598V32.7842ZM85.4424 30.9598C85.4424 30.0544 85.2803 29.406 84.9561 28.9869C84.6452 28.5818 84.1452 28.3791 83.4831 28.3791C82.8074 28.3791 82.3075 28.5818 81.9966 28.9869C81.6724 29.406 81.5102 30.0544 81.5102 30.9598V32.7842C81.5102 33.6893 81.6724 34.3381 81.9966 34.7435C82.3075 35.1623 82.8074 35.365 83.4831 35.365C84.1452 35.365 84.6452 35.1623 84.9561 34.7435C85.2803 34.3381 85.4424 33.6893 85.4424 32.7842V30.9598ZM96.3604 32.8651C96.3604 34.2029 95.9956 35.2298 95.2523 35.9325C94.5227 36.6488 93.4688 37 92.1177 37C91.8607 37 91.6177 37 91.3475 36.9864C91.0772 36.9731 90.8205 36.9594 90.5772 36.9461C90.3202 36.9324 90.1042 36.9055 89.9015 36.8918C89.6988 36.8785 89.5367 36.8512 89.4421 36.8379C89.3206 36.8243 89.2394 36.784 89.1855 36.7164C89.1179 36.6488 89.0906 36.554 89.0906 36.4188V27.3249C89.0906 27.1897 89.1179 27.0952 89.1855 27.0276C89.2394 26.9601 89.3206 26.9198 89.4421 26.9061C89.5367 26.8925 89.6988 26.8655 89.9015 26.8522C90.1042 26.8386 90.3202 26.8116 90.5772 26.798C90.8205 26.7846 91.0772 26.771 91.3475 26.7573C91.6177 26.744 91.8607 26.744 92.1177 26.744C93.4688 26.744 94.5227 27.0952 95.2523 27.7979C95.9956 28.5142 96.3604 29.5411 96.3604 30.8789V32.8651ZM94.4824 30.8789C94.4824 30.3789 94.4281 29.9599 94.3066 29.6356C94.1851 29.2978 94.0094 29.0411 93.8067 28.8384C93.5903 28.6494 93.3337 28.5142 93.0501 28.433C92.7528 28.3654 92.4419 28.3248 92.1041 28.3248C91.8474 28.3248 91.6311 28.3248 91.4553 28.3385C91.2799 28.3521 91.1178 28.3521 90.969 28.3654V35.3919C91.1178 35.4056 91.2799 35.4056 91.4553 35.4189C91.6311 35.4325 91.8474 35.4325 92.1041 35.4325C92.4419 35.4325 92.7528 35.3919 93.0501 35.3111C93.3337 35.2435 93.5903 35.1083 93.8067 34.9056C94.0094 34.7165 94.1851 34.4596 94.3066 34.1217C94.4281 33.7975 94.4824 33.3787 94.4824 32.8788V30.8789ZM105.468 33.176C105.468 33.892 105.373 34.5002 105.198 34.9865C105.009 35.4732 104.752 35.8649 104.427 36.1622C104.09 36.4594 103.698 36.6758 103.252 36.7973C102.792 36.9325 102.292 37 101.752 37C101.212 37 100.712 36.9325 100.266 36.7973C99.8063 36.6758 99.4145 36.4594 99.0899 36.1622C98.7521 35.8649 98.4954 35.4732 98.3197 34.9865C98.1306 34.5002 98.0361 33.892 98.0361 33.176V27.1088C98.0361 27.0413 98.063 26.9737 98.1173 26.9198C98.1712 26.8792 98.2388 26.8522 98.3064 26.8522H99.6442C99.7117 26.8522 99.7793 26.8792 99.8332 26.9198C99.8872 26.9737 99.9144 27.0413 99.9144 27.1088V33.1894C99.9144 33.5678 99.9414 33.9057 99.9953 34.1893C100.05 34.4732 100.144 34.7165 100.293 34.9056C100.428 35.0947 100.617 35.2298 100.847 35.3244C101.076 35.4189 101.387 35.4595 101.752 35.4595C102.117 35.4595 102.414 35.4189 102.657 35.3244C102.887 35.2298 103.076 35.0947 103.225 34.9056C103.36 34.7165 103.454 34.4732 103.509 34.1893C103.563 33.9057 103.59 33.5678 103.59 33.1894V27.1088C103.59 27.0413 103.617 26.9737 103.671 26.9198C103.725 26.8792 103.792 26.8522 103.86 26.8522H105.198C105.265 26.8522 105.333 26.8792 105.387 26.9198C105.441 26.9737 105.468 27.0413 105.468 27.1088V33.176ZM113.4 36.4731C113.4 36.5676 113.373 36.6352 113.319 36.6758C113.265 36.7164 113.197 36.7567 113.103 36.784C113.048 36.7973 112.954 36.8243 112.832 36.8379C112.697 36.8649 112.535 36.8918 112.346 36.9188C112.157 36.9325 111.941 36.9594 111.711 36.9731C111.481 36.9864 111.224 37 110.968 37C110.562 37 110.13 36.9461 109.684 36.8243C109.238 36.7028 108.819 36.4864 108.454 36.1758C108.076 35.8649 107.779 35.4462 107.522 34.9189C107.279 34.392 107.157 33.703 107.157 32.8651V30.8789C107.157 30.0274 107.279 29.3384 107.522 28.7978C107.779 28.2709 108.076 27.8521 108.454 27.5412C108.819 27.2303 109.238 27.0276 109.684 26.9061C110.13 26.798 110.562 26.744 110.968 26.744C111.224 26.744 111.481 26.7573 111.711 26.771C111.941 26.7846 112.157 26.8116 112.346 26.8249C112.535 26.8522 112.697 26.8792 112.832 26.9061C112.954 26.9331 113.048 26.9467 113.103 26.9601C113.197 26.987 113.265 27.0143 113.319 27.0546C113.373 27.0952 113.4 27.1764 113.4 27.271V28.1764C113.4 28.2572 113.386 28.3248 113.346 28.3791C113.305 28.433 113.224 28.46 113.13 28.46H113.103C112.981 28.4466 112.846 28.433 112.684 28.4194C112.508 28.406 112.332 28.406 112.143 28.3924C111.954 28.3791 111.765 28.3791 111.562 28.3654C111.359 28.3521 111.17 28.3521 110.995 28.3521C110.711 28.3521 110.441 28.3924 110.211 28.4736C109.968 28.5681 109.765 28.7033 109.589 28.8924C109.413 29.0951 109.278 29.352 109.184 29.6763C109.089 30.0005 109.035 30.4059 109.035 30.8789V32.8651C109.035 33.3381 109.089 33.7299 109.184 34.0541C109.278 34.3787 109.413 34.6353 109.589 34.838C109.765 35.0408 109.968 35.1759 110.211 35.2568C110.441 35.3513 110.711 35.3919 110.995 35.3919C111.17 35.3919 111.359 35.3919 111.562 35.3786C111.765 35.365 111.954 35.365 112.143 35.3513C112.332 35.338 112.508 35.3244 112.684 35.3111C112.846 35.2974 112.981 35.2974 113.103 35.2838H113.13C113.224 35.2838 113.305 35.311 113.346 35.365C113.386 35.4189 113.4 35.4865 113.4 35.5677V36.4731ZM121.508 28.1764C121.508 28.2439 121.48 28.3115 121.426 28.3521C121.372 28.3924 121.305 28.4194 121.237 28.4194H118.873V36.6216C118.873 36.6891 118.845 36.7567 118.791 36.811C118.737 36.8649 118.67 36.8918 118.602 36.8918H117.264C117.197 36.8918 117.129 36.8649 117.075 36.811C117.021 36.7567 116.994 36.6891 116.994 36.6216V28.4194H114.63C114.562 28.4194 114.494 28.3924 114.44 28.3521C114.386 28.3115 114.359 28.2439 114.359 28.1764V27.1088C114.359 27.0413 114.386 26.9737 114.44 26.9198C114.494 26.8792 114.562 26.8522 114.63 26.8522H121.237C121.305 26.8522 121.372 26.8792 121.426 26.9198C121.48 26.9737 121.508 27.0413 121.508 27.1088V28.1764ZM124.737 36.6216C124.737 36.6891 124.71 36.7567 124.656 36.811C124.602 36.8649 124.534 36.8918 124.467 36.8918H123.129C123.061 36.8918 122.994 36.8649 122.94 36.811C122.886 36.7567 122.859 36.6891 122.859 36.6216V27.1088C122.859 27.0413 122.886 26.9737 122.94 26.9198C122.994 26.8792 123.061 26.8522 123.129 26.8522H124.467C124.534 26.8522 124.602 26.8792 124.656 26.9198C124.71 26.9737 124.737 27.0413 124.737 27.1088V36.6216ZM134.182 32.7842C134.182 33.5272 134.088 34.176 133.898 34.7029C133.696 35.2298 133.439 35.6622 133.088 36.0001C132.75 36.3379 132.344 36.5946 131.871 36.7567C131.412 36.9188 130.899 37 130.344 37C129.777 37 129.264 36.9188 128.804 36.7567C128.331 36.5946 127.926 36.3379 127.588 36.0001C127.25 35.6622 126.98 35.2298 126.791 34.7029C126.588 34.176 126.494 33.5272 126.494 32.7842V30.9598C126.494 30.2168 126.588 29.5817 126.791 29.0411C126.98 28.5142 127.25 28.0682 127.588 27.7303C127.926 27.3925 128.331 27.1495 128.804 26.987C129.264 26.8249 129.777 26.744 130.344 26.744C130.899 26.744 131.412 26.8249 131.871 26.987C132.344 27.1495 132.75 27.3925 133.088 27.7303C133.439 28.0682 133.696 28.5142 133.898 29.0411C134.088 29.5817 134.182 30.2168 134.182 30.9598V32.7842ZM132.304 30.9598C132.304 30.0544 132.142 29.406 131.817 28.9869C131.507 28.5818 131.007 28.3791 130.344 28.3791C129.669 28.3791 129.169 28.5818 128.858 28.9869C128.534 29.406 128.372 30.0544 128.372 30.9598V32.7842C128.372 33.6893 128.534 34.3381 128.858 34.7435C129.169 35.1623 129.669 35.365 130.344 35.365C131.007 35.365 131.507 35.1623 131.817 34.7435C132.142 34.3381 132.304 33.6893 132.304 32.7842V30.9598ZM143.546 36.3516C143.546 36.5001 143.492 36.6352 143.398 36.7297C143.29 36.8379 143.155 36.8918 143.006 36.8918H141.641C141.479 36.8918 141.33 36.8649 141.195 36.8243C141.046 36.784 140.925 36.6488 140.817 36.4055L137.817 29.8247C137.776 29.7571 137.736 29.7169 137.696 29.7169C137.655 29.7169 137.628 29.7571 137.628 29.8247V36.6216C137.628 36.6891 137.601 36.7567 137.56 36.811C137.506 36.8649 137.439 36.8918 137.371 36.8918H136.223C136.155 36.8918 136.087 36.8649 136.033 36.811C135.979 36.7567 135.952 36.6891 135.952 36.6216V27.3925C135.952 27.244 136.006 27.1088 136.114 27.0007C136.209 26.9061 136.344 26.8522 136.493 26.8522H137.952C138.101 26.8522 138.209 26.8792 138.303 26.9331C138.385 26.987 138.465 27.1088 138.547 27.2846L141.695 34.2299C141.722 34.2975 141.763 34.3381 141.803 34.3381C141.844 34.3381 141.871 34.2975 141.871 34.2166V27.1088C141.871 26.9331 141.952 26.8522 142.128 26.8522H143.29C143.465 26.8522 143.546 26.9331 143.546 27.1088V36.3516Z" fill="#5C8EE6"></path>
    </g>
    <defs>
      <filter id="filter0_d_191_1609" x="0" y="0" width="148" height="52" filterUnits="userSpaceOnUse" color-interpolation-filters="sRGB">
        <feFlood flood-opacity="0" result="BackgroundImageFix"></feFlood>
        <feColorMatrix in="SourceAlpha" type="matrix" values="0 0 0 0 0 0 0 0 0 0 0 0 0 0 0 0 0 0 127 0" result="hardAlpha"></feColorMatrix>
        <feOffset dy="4"></feOffset>
        <feGaussianBlur stdDeviation="2"></feGaussianBlur>
        <feComposite in2="hardAlpha" operator="out"></feComposite>
        <feColorMatrix type="matrix" values="0 0 0 0 0 0 0 0 0 0 0 0 0 0 0 0 0 0 0.25 0"></feColorMatrix>
        <feBlend mode="normal" in2="BackgroundImageFix" result="effect1_dropShadow_191_1609"></feBlend>
        <feBlend mode="normal" in="SourceGraphic" in2="effect1_dropShadow_191_1609" result="shape"></feBlend>
      </filter>
      <clipPath id="clip0_191_1609">
        <rect width="140" height="44" fill="white" transform="translate(4)"></rect>
      </clipPath>
    </defs>
  </symbol>
  <symbol fill="none" xmlns="http://www.w3.org/2000/svg" viewBox="0 0 140 44" id="logo">
    <g clip-path="url(#clip0_191_1668)">
      <path fill-rule="evenodd" clip-rule="evenodd" d="M21.9928 4.89351C24.2857 4.89351 26.4733 5.34481 28.4715 6.16361V12.3539V21.8184C28.4715 25.3669 25.5949 28.2436 22.0465 28.2436C20.5375 28.2436 19.15 27.7235 18.0536 26.8527V32.5405C19.2966 33.0038 20.6421 33.2569 22.0465 33.2569C29.0248 33.2569 33.5146 27.7473 33.5146 21.0594V3.25613C30.1638 1.19127 26.2173 0 21.9928 0C9.84658 0 0 9.84658 0 21.9928C0 28.9293 3.21131 35.1156 8.22825 39.1466V32.1397C6.13243 29.3013 4.89351 25.7918 4.89351 21.9928C4.89351 12.5492 12.5492 4.89351 21.9928 4.89351Z" fill="#292D33"></path>
      <path fill-rule="evenodd" clip-rule="evenodd" d="M22.0619 39.1065C19.7688 39.1065 17.5811 38.6552 15.583 37.8364V31.6461V22.1815C15.583 18.6331 18.4597 15.7563 22.0082 15.7563C23.5171 15.7563 24.9044 16.2765 26.0008 17.1473V11.4594C24.7578 10.9962 23.4125 10.7431 22.0082 10.7431C15.0299 10.7431 10.54 16.2527 10.54 22.9406V40.7438C13.8906 42.8087 17.8371 44 22.0619 44C34.2081 44 44.0546 34.1534 44.0546 22.0072C44.0546 15.0707 40.8433 8.88436 35.8264 4.85339V11.8603C37.9222 14.6987 39.1611 18.2082 39.1611 22.0072C39.1611 31.4508 31.5055 39.1065 22.0619 39.1065Z" fill="#5C8EE6"></path>
      <path d="M71.3035 22.5536C71.3035 22.6595 71.2612 22.7443 71.1976 22.8079C71.1339 22.8716 71.028 22.9138 70.9221 22.9138H68.676C68.5701 22.9138 68.4853 22.8716 68.4216 22.8079C68.3582 22.7443 68.2946 22.6595 68.2735 22.5536L67.2985 18.5275H62.4249L61.45 22.5536C61.4289 22.6595 61.3655 22.7443 61.3019 22.8079C61.2382 22.8716 61.1534 22.9138 61.0475 22.9138H58.8014C58.6955 22.9138 58.5896 22.8716 58.5259 22.8079C58.4622 22.7443 58.42 22.6595 58.42 22.5536C58.42 22.5324 58.42 22.5324 58.4411 22.5113C58.4411 22.4902 58.4411 22.4688 58.4411 22.4476L61.9165 9.16164C62.0435 8.67402 62.2342 8.27152 62.4672 7.99603C62.7004 7.72055 62.9759 7.48762 63.2514 7.33916C63.5269 7.19102 63.8023 7.10623 64.099 7.06367C64.3744 7.02144 64.6288 7 64.8617 7C65.095 7 65.349 7.02144 65.6456 7.06367C65.9211 7.10623 66.218 7.19102 66.4935 7.33916C66.769 7.48762 67.0231 7.72055 67.2563 7.99603C67.4892 8.27152 67.6799 8.67402 67.8073 9.16164L71.2824 22.4476C71.2824 22.4688 71.2823 22.4902 71.3035 22.5113C71.3035 22.5324 71.3035 22.5324 71.3035 22.5536ZM65.2009 9.81852C65.1795 9.69117 65.1372 9.60638 65.095 9.54304C65.0524 9.50048 64.9676 9.47936 64.8617 9.47936C64.7558 9.47936 64.671 9.50048 64.6288 9.54304C64.5862 9.60638 64.544 9.69117 64.5226 9.81852L62.997 16.1118H66.7265L65.2009 9.81852Z" fill="#292D33"></path>
      <path d="M81.7927 22.3417C81.7927 22.4902 81.7712 22.5961 81.7079 22.6594C81.6442 22.7231 81.5172 22.7653 81.3687 22.7868C81.2206 22.829 80.9873 22.8716 80.7119 22.8927C80.4153 22.9349 80.0975 22.9775 79.7584 22.9986C79.4192 23.0197 79.0804 23.0408 78.7201 23.0623C78.3598 23.0834 78.0418 23.0834 77.7663 23.0834C77.0672 23.0834 76.4314 23.0197 75.8382 22.9138C75.2447 22.8079 74.7363 22.575 74.2912 22.2569C73.8462 21.9392 73.5073 21.5153 73.253 20.9432C72.9986 20.3711 72.8716 19.6505 72.8716 18.7393V7.59352C72.8716 7.48761 72.9138 7.38139 72.9986 7.29692C73.0834 7.21213 73.1893 7.16958 73.2955 7.16958H75.3932C75.4991 7.16958 75.605 7.21213 75.6898 7.29692C75.7746 7.38139 75.8171 7.48761 75.8171 7.59352V18.7393C75.8171 19.4387 75.9441 19.926 76.1771 20.1804C76.4103 20.4344 76.8554 20.5618 77.4697 20.5618H81.3687C81.4746 20.5618 81.5805 20.604 81.6653 20.6888C81.7501 20.7736 81.7927 20.8795 81.7927 20.9854V22.3417ZM86.7511 22.4902C86.7511 22.5961 86.7085 22.702 86.6237 22.7868C86.5393 22.8716 86.433 22.9138 86.3271 22.9138H84.2295C84.1236 22.9138 84.0177 22.8716 83.9329 22.7868C83.8481 22.702 83.8055 22.5961 83.8055 22.4902V7.57241C83.8055 7.46618 83.8481 7.36027 83.9329 7.27548C84.0177 7.21214 84.1236 7.16958 84.2295 7.16958H86.3271C86.433 7.16958 86.5393 7.21214 86.6237 7.27548C86.7085 7.36027 86.7511 7.46618 86.7511 7.57241V22.4902ZM101.626 22.5535C101.626 22.6594 101.584 22.7442 101.52 22.8079C101.457 22.8716 101.351 22.9138 101.245 22.9138H98.9988C98.8929 22.9138 98.8081 22.8716 98.7444 22.8079C98.6811 22.7442 98.6174 22.6594 98.5963 22.5535L97.6214 18.5275H92.7478L91.7732 22.5535C91.7517 22.6594 91.6884 22.7442 91.6247 22.8079C91.561 22.8716 91.4766 22.9138 91.3703 22.9138H89.1242C89.0183 22.9138 88.9124 22.8716 88.8487 22.8079C88.7854 22.7442 88.7428 22.6594 88.7428 22.5535C88.7428 22.5324 88.7428 22.5324 88.7639 22.5113C88.7639 22.4902 88.7639 22.4687 88.7639 22.4476L92.2393 9.16164C92.3664 8.67402 92.5571 8.27152 92.7903 7.99603C93.0232 7.72055 93.2987 7.48762 93.5742 7.33916C93.8497 7.19102 94.1252 7.10623 94.4218 7.06367C94.6973 7.02144 94.9516 7 95.1846 7C95.4178 7 95.6719 7.02144 95.9688 7.06367C96.2443 7.10623 96.5409 7.19102 96.8164 7.33916C97.0918 7.48762 97.3459 7.72055 97.5791 7.99603C97.8121 8.27152 98.0031 8.67402 98.1301 9.16164L101.605 22.4476C101.605 22.4687 101.605 22.4902 101.626 22.5113C101.626 22.5324 101.626 22.5324 101.626 22.5535ZM95.5237 9.81851C95.5026 9.69117 95.46 9.60638 95.4178 9.54303C95.3753 9.50047 95.2905 9.47936 95.1846 9.47936C95.0787 9.47936 94.9939 9.50047 94.9516 9.54303C94.9091 9.60638 94.8668 9.69117 94.8457 9.81851L93.3198 16.1118H97.0493L95.5237 9.81851ZM115.527 22.0662C115.527 22.2995 115.442 22.5113 115.294 22.6594C115.124 22.829 114.913 22.9138 114.679 22.9138H112.539C112.285 22.9138 112.052 22.8716 111.84 22.8079C111.607 22.7442 111.416 22.5324 111.247 22.151L106.542 11.8314C106.479 11.7255 106.415 11.6618 106.352 11.6618C106.288 11.6618 106.246 11.7255 106.246 11.8314V22.4902C106.246 22.5961 106.203 22.702 106.14 22.7868C106.055 22.8716 105.949 22.9138 105.843 22.9138H104.042C103.936 22.9138 103.83 22.8716 103.745 22.7868C103.661 22.702 103.618 22.5961 103.618 22.4902V8.01714C103.618 7.78422 103.703 7.57241 103.872 7.40283C104.021 7.25437 104.233 7.16958 104.466 7.16958H106.754C106.988 7.16958 107.157 7.21213 107.305 7.29692C107.433 7.38139 107.56 7.57241 107.687 7.84757L112.624 18.7393C112.666 18.8452 112.73 18.9089 112.794 18.9089C112.857 18.9089 112.899 18.8452 112.899 18.7182V7.57241C112.899 7.29692 113.027 7.16958 113.302 7.16958H115.124C115.4 7.16958 115.527 7.29692 115.527 7.57241V22.0662ZM128.072 22.2569C128.072 22.4054 128.029 22.5113 127.945 22.575C127.86 22.6383 127.754 22.702 127.605 22.7442C127.521 22.7653 127.372 22.8079 127.181 22.829C126.97 22.8716 126.715 22.9138 126.419 22.9564C126.122 22.9775 125.783 23.0197 125.423 23.0408C125.063 23.0623 124.66 23.0834 124.257 23.0834C123.622 23.0834 122.944 22.9986 122.244 22.8079C121.545 22.6172 120.888 22.278 120.316 21.7907C119.723 21.3034 119.256 20.6466 118.854 19.8201C118.472 18.9937 118.282 17.9128 118.282 16.5991V13.4843C118.282 12.1494 118.472 11.0686 118.854 10.221C119.256 9.39457 119.723 8.7377 120.316 8.2504C120.888 7.76311 121.545 7.44506 122.244 7.25436C122.944 7.08478 123.622 7 124.257 7C124.66 7 125.063 7.02144 125.423 7.04255C125.783 7.06367 126.122 7.10623 126.419 7.12734C126.715 7.16958 126.97 7.21213 127.181 7.25436C127.372 7.29692 127.521 7.31804 127.605 7.33916C127.754 7.38139 127.86 7.42394 127.945 7.48761C128.029 7.55096 128.072 7.67831 128.072 7.82645V9.24643C128.072 9.37345 128.05 9.47936 127.987 9.56415C127.923 9.64894 127.796 9.69117 127.648 9.69117H127.605C127.415 9.67005 127.203 9.64894 126.948 9.62782C126.673 9.60638 126.398 9.60638 126.101 9.58526C125.804 9.56415 125.507 9.56415 125.19 9.54303C124.872 9.52191 124.575 9.52192 124.3 9.52192C123.855 9.52192 123.431 9.58527 123.071 9.71262C122.689 9.86075 122.371 10.0726 122.096 10.3695C121.821 10.6872 121.609 11.0897 121.46 11.5984C121.312 12.1069 121.227 12.7426 121.227 13.4843V16.5991C121.227 17.3408 121.312 17.9554 121.46 18.4638C121.609 18.9725 121.821 19.3751 122.096 19.6931C122.371 20.0108 122.689 20.2226 123.071 20.35C123.431 20.4981 123.855 20.5618 124.3 20.5618C124.575 20.5618 124.872 20.5618 125.19 20.5407C125.507 20.5192 125.804 20.5192 126.101 20.4981C126.398 20.477 126.673 20.4559 126.948 20.4344C127.203 20.4133 127.415 20.4133 127.605 20.3922H127.648C127.796 20.3922 127.923 20.4344 127.987 20.5192C128.05 20.604 128.072 20.7099 128.072 20.8373V22.2569ZM140.002 22.3417C140.002 22.4902 139.98 22.5961 139.917 22.6594C139.853 22.7231 139.726 22.7653 139.578 22.7868C139.408 22.8079 139.218 22.8501 139.027 22.8716C138.815 22.9138 138.56 22.9563 138.264 22.9775C137.946 22.9986 137.586 23.0408 137.162 23.0623C136.717 23.0834 136.187 23.0834 135.552 23.0834C134.852 23.0834 134.217 23.0197 133.623 22.9138C133.03 22.8079 132.5 22.575 132.076 22.2569C131.631 21.9392 131.271 21.5153 131.017 20.9432C130.763 20.3711 130.635 19.6505 130.635 18.7393V11.3441C130.635 10.4328 130.763 9.71261 131.017 9.1402C131.271 8.56812 131.631 8.12305 132.076 7.80533C132.5 7.48761 133.03 7.27548 133.623 7.16958C134.217 7.06367 134.852 7 135.552 7C136.187 7 136.717 7 137.162 7.02144C137.586 7.04255 137.946 7.08478 138.264 7.10622C138.56 7.12734 138.815 7.16958 139.027 7.19102C139.218 7.23325 139.408 7.27548 139.578 7.29692C139.726 7.31804 139.853 7.36027 139.917 7.42394C139.98 7.48761 140.002 7.59352 140.002 7.74166V9.09797C140.002 9.20387 139.959 9.30978 139.874 9.39457C139.79 9.47936 139.684 9.52192 139.578 9.52192H135.255C134.64 9.52192 134.196 9.64894 133.962 9.90331C133.708 10.1574 133.581 10.6447 133.581 11.3441V13.6327H139.324C139.429 13.6327 139.535 13.675 139.62 13.7598C139.705 13.8446 139.747 13.9505 139.747 14.0564V15.5819C139.747 15.6882 139.705 15.7941 139.62 15.8789C139.535 15.9636 139.429 16.0059 139.324 16.0059H133.581V18.7393C133.581 19.4387 133.708 19.926 133.962 20.1804C134.196 20.4344 134.64 20.5618 135.255 20.5618H139.578C139.684 20.5618 139.79 20.604 139.874 20.6888C139.959 20.7736 140.002 20.8795 140.002 20.9854V22.3417Z" fill="#292D33"></path>
      <path d="M65.8759 29.9868C65.8759 30.5816 65.7677 31.0816 65.565 31.4867C65.3489 31.8921 65.0653 32.2167 64.7002 32.4597C64.349 32.7167 63.9303 32.8921 63.4706 32.9866C62.9979 33.0948 62.4979 33.149 61.9707 33.149C61.7953 33.149 61.5925 33.1354 61.3492 33.1218C61.1195 33.1084 60.9168 33.1084 60.768 33.0948V36.6215C60.768 36.6891 60.7411 36.7567 60.7005 36.8109C60.6465 36.8648 60.579 36.8918 60.5114 36.8918H59.1603C59.0927 36.8918 59.0251 36.8648 58.9709 36.8109C58.917 36.7567 58.89 36.6891 58.89 36.6215V27.3249C58.89 27.1897 58.9306 27.0952 59.0115 27.0276C59.0791 26.9737 59.1873 26.9331 59.3224 26.9198C59.6736 26.8655 60.079 26.8249 60.5384 26.7846C60.998 26.7573 61.4844 26.744 61.9843 26.744C62.4979 26.744 62.9979 26.7979 63.4706 26.8925C63.9303 26.987 64.349 27.1628 64.7002 27.4061C65.0653 27.6494 65.3489 27.9736 65.565 28.3654C65.7677 28.7709 65.8759 29.2708 65.8759 29.8653V29.9868ZM63.9978 29.8517C63.9978 29.2845 63.8354 28.879 63.4979 28.6494C63.16 28.406 62.6464 28.2845 61.9707 28.2845C61.9031 28.2845 61.8086 28.2845 61.7004 28.2845C61.5789 28.2978 61.4707 28.2978 61.3492 28.2978C61.2277 28.3115 61.1195 28.3115 61.025 28.3115C60.9168 28.3248 60.8356 28.3248 60.768 28.3385V31.5679C60.8223 31.5679 60.9032 31.5679 61.025 31.5679C61.1332 31.5816 61.2547 31.5816 61.3762 31.5816C61.498 31.5949 61.6059 31.5949 61.7277 31.5949C61.8355 31.6085 61.9168 31.6085 61.9707 31.6085C62.7003 31.6085 63.2276 31.4734 63.5382 31.2031C63.8491 30.9328 63.9978 30.5274 63.9978 29.9735V29.8517ZM74.6456 36.7297C74.6456 36.8379 74.5917 36.8918 74.4835 36.8918H72.8348C72.7672 36.8918 72.7133 36.8648 72.6727 36.8109C72.6324 36.7567 72.6051 36.6891 72.5648 36.6215L70.6189 33.0272H70.4298C70.2541 33.0272 70.0377 33.0139 69.808 33.0003C69.5784 32.9866 69.3756 32.9866 69.2272 32.9733V36.6215C69.2272 36.6891 69.1999 36.7567 69.1596 36.8109C69.1054 36.8648 69.0378 36.8918 68.9702 36.8918H67.6191C67.5515 36.8918 67.484 36.8648 67.43 36.8109C67.3758 36.7567 67.3488 36.6891 67.3488 36.6215V27.3249C67.3488 27.1897 67.3894 27.0952 67.4703 27.0276C67.5379 26.9737 67.6461 26.9331 67.7812 26.9198C68.1324 26.8655 68.5378 26.8249 68.9975 26.7846C69.4569 26.7573 69.9432 26.744 70.4431 26.744C70.9568 26.744 71.4567 26.7979 71.9297 26.8925C72.3891 27.0007 72.8078 27.1764 73.1593 27.4061C73.5242 27.6358 73.8078 27.9467 74.0241 28.3385C74.2268 28.7302 74.3347 29.2169 74.3347 29.7977V29.9192C74.3347 30.6356 74.1726 31.2301 73.8347 31.6761C73.5105 32.1218 73.0645 32.4597 72.4973 32.676L74.6186 36.6215C74.6319 36.6488 74.6456 36.6891 74.6456 36.7297ZM72.4567 29.7977C72.4567 29.2845 72.2945 28.9196 71.9567 28.6896C71.6188 28.46 71.1052 28.3521 70.4298 28.3521C70.3623 28.3521 70.2674 28.3521 70.1595 28.3521C70.0377 28.3654 69.9299 28.3654 69.808 28.3654C69.6865 28.3791 69.5784 28.3791 69.4838 28.3791C69.3756 28.3924 69.2948 28.3924 69.2272 28.406V31.4464C69.2811 31.4464 69.3623 31.4464 69.4838 31.4464C69.592 31.4597 69.7135 31.4598 69.835 31.4598C69.9568 31.4734 70.0647 31.4734 70.1865 31.4734C70.2947 31.4867 70.3756 31.4867 70.4298 31.4867C71.1322 31.4867 71.6458 31.3789 71.97 31.1492C72.2945 30.9195 72.4567 30.5141 72.4567 29.9192V29.7977Z" fill="#5C8EE6"></path>
      <path d="M83.3208 32.7842C83.3208 33.5272 83.2259 34.176 83.0368 34.7029C82.8341 35.2298 82.5775 35.6622 82.226 36.0001C81.8884 36.3379 81.483 36.5946 81.01 36.7567C80.5507 36.9188 80.037 37 79.4831 37C78.9156 37 78.402 36.9188 77.9426 36.7567C77.4696 36.5946 77.0642 36.3379 76.7267 36.0001C76.3888 35.6622 76.1185 35.2298 75.9291 34.7029C75.7264 34.176 75.6319 33.5272 75.6319 32.7842V30.9598C75.6319 30.2168 75.7264 29.5817 75.9291 29.0411C76.1185 28.5142 76.3888 28.0682 76.7267 27.7303C77.0642 27.3925 77.4696 27.1495 77.9426 26.987C78.402 26.8249 78.9156 26.744 79.4831 26.744C80.037 26.744 80.5507 26.8249 81.01 26.987C81.483 27.1495 81.8884 27.3925 82.226 27.7303C82.5775 28.0682 82.8341 28.5142 83.0368 29.0411C83.2259 29.5817 83.3208 30.2168 83.3208 30.9598V32.7842ZM81.4424 30.9598C81.4424 30.0544 81.2803 29.406 80.9561 28.9869C80.6452 28.5818 80.1452 28.3791 79.4831 28.3791C78.8074 28.3791 78.3075 28.5818 77.9966 28.9869C77.6724 29.406 77.5102 30.0544 77.5102 30.9598V32.7842C77.5102 33.6893 77.6724 34.3381 77.9966 34.7435C78.3075 35.1623 78.8074 35.365 79.4831 35.365C80.1452 35.365 80.6452 35.1623 80.9561 34.7435C81.2803 34.3381 81.4424 33.6893 81.4424 32.7842V30.9598ZM92.3604 32.8651C92.3604 34.2029 91.9956 35.2298 91.2523 35.9325C90.5227 36.6488 89.4688 37 88.1177 37C87.8607 37 87.6177 37 87.3475 36.9864C87.0772 36.9731 86.8205 36.9594 86.5772 36.9461C86.3202 36.9324 86.1042 36.9055 85.9015 36.8918C85.6988 36.8785 85.5367 36.8512 85.4421 36.8379C85.3206 36.8243 85.2394 36.784 85.1855 36.7164C85.1179 36.6488 85.0906 36.554 85.0906 36.4188V27.3249C85.0906 27.1897 85.1179 27.0952 85.1855 27.0276C85.2394 26.9601 85.3206 26.9198 85.4421 26.9061C85.5367 26.8925 85.6988 26.8655 85.9015 26.8522C86.1042 26.8386 86.3202 26.8116 86.5772 26.798C86.8205 26.7846 87.0772 26.771 87.3475 26.7573C87.6177 26.744 87.8607 26.744 88.1177 26.744C89.4688 26.744 90.5227 27.0952 91.2523 27.7979C91.9956 28.5142 92.3604 29.5411 92.3604 30.8789V32.8651ZM90.4824 30.8789C90.4824 30.3789 90.4281 29.9599 90.3066 29.6356C90.1851 29.2978 90.0094 29.0411 89.8067 28.8384C89.5903 28.6494 89.3337 28.5142 89.0501 28.433C88.7528 28.3654 88.4419 28.3248 88.1041 28.3248C87.8474 28.3248 87.6311 28.3248 87.4553 28.3385C87.2799 28.3521 87.1178 28.3521 86.969 28.3654V35.3919C87.1178 35.4056 87.2799 35.4056 87.4553 35.4189C87.6311 35.4325 87.8474 35.4325 88.1041 35.4325C88.4419 35.4325 88.7528 35.3919 89.0501 35.3111C89.3337 35.2435 89.5903 35.1083 89.8067 34.9056C90.0094 34.7165 90.1851 34.4596 90.3066 34.1217C90.4281 33.7975 90.4824 33.3787 90.4824 32.8788V30.8789ZM101.468 33.176C101.468 33.892 101.373 34.5002 101.198 34.9865C101.009 35.4732 100.752 35.8649 100.427 36.1622C100.09 36.4594 99.6978 36.6758 99.2518 36.7973C98.7924 36.9325 98.2925 37 97.7519 37C97.2116 37 96.7117 36.9325 96.2656 36.7973C95.8063 36.6758 95.4145 36.4594 95.0899 36.1622C94.7521 35.8649 94.4954 35.4732 94.3197 34.9865C94.1306 34.5002 94.0361 33.892 94.0361 33.176V27.1088C94.0361 27.0413 94.063 26.9737 94.1173 26.9198C94.1712 26.8792 94.2388 26.8522 94.3064 26.8522H95.6442C95.7117 26.8522 95.7793 26.8792 95.8332 26.9198C95.8872 26.9737 95.9144 27.0413 95.9144 27.1088V33.1894C95.9144 33.5678 95.9414 33.9057 95.9953 34.1893C96.0496 34.4732 96.1441 34.7165 96.2926 34.9056C96.4277 35.0947 96.6168 35.2298 96.8468 35.3244C97.0765 35.4189 97.3871 35.4595 97.7519 35.4595C98.117 35.4595 98.4143 35.4189 98.6573 35.3244C98.887 35.2298 99.0764 35.0947 99.2248 34.9056C99.36 34.7165 99.4545 34.4732 99.5087 34.1893C99.5627 33.9057 99.5896 33.5678 99.5896 33.1894V27.1088C99.5896 27.0413 99.6169 26.9737 99.6709 26.9198C99.7248 26.8792 99.7924 26.8522 99.8599 26.8522H101.198C101.265 26.8522 101.333 26.8792 101.387 26.9198C101.441 26.9737 101.468 27.0413 101.468 27.1088V33.176ZM109.4 36.4731C109.4 36.5676 109.373 36.6352 109.319 36.6758C109.265 36.7164 109.197 36.7567 109.103 36.784C109.048 36.7973 108.954 36.8243 108.832 36.8379C108.697 36.8649 108.535 36.8918 108.346 36.9188C108.157 36.9325 107.941 36.9594 107.711 36.9731C107.481 36.9864 107.224 37 106.968 37C106.562 37 106.13 36.9461 105.684 36.8243C105.238 36.7028 104.819 36.4864 104.454 36.1758C104.076 35.8649 103.779 35.4462 103.522 34.9189C103.279 34.392 103.157 33.703 103.157 32.8651V30.8789C103.157 30.0274 103.279 29.3384 103.522 28.7978C103.779 28.2709 104.076 27.8521 104.454 27.5412C104.819 27.2303 105.238 27.0276 105.684 26.9061C106.13 26.798 106.562 26.744 106.968 26.744C107.224 26.744 107.481 26.7573 107.711 26.771C107.941 26.7846 108.157 26.8116 108.346 26.8249C108.535 26.8522 108.697 26.8792 108.832 26.9061C108.954 26.9331 109.048 26.9467 109.103 26.9601C109.197 26.987 109.265 27.0143 109.319 27.0546C109.373 27.0952 109.4 27.1764 109.4 27.271V28.1764C109.4 28.2572 109.386 28.3248 109.346 28.3791C109.305 28.433 109.224 28.46 109.13 28.46H109.103C108.981 28.4466 108.846 28.433 108.684 28.4194C108.508 28.406 108.332 28.406 108.143 28.3924C107.954 28.3791 107.765 28.3791 107.562 28.3654C107.359 28.3521 107.17 28.3521 106.995 28.3521C106.711 28.3521 106.441 28.3924 106.211 28.4736C105.968 28.5681 105.765 28.7033 105.589 28.8924C105.413 29.0951 105.278 29.352 105.184 29.6763C105.089 30.0005 105.035 30.4059 105.035 30.8789V32.8651C105.035 33.3381 105.089 33.7299 105.184 34.0541C105.278 34.3787 105.413 34.6353 105.589 34.838C105.765 35.0408 105.968 35.1759 106.211 35.2568C106.441 35.3513 106.711 35.3919 106.995 35.3919C107.17 35.3919 107.359 35.3919 107.562 35.3786C107.765 35.365 107.954 35.365 108.143 35.3513C108.332 35.338 108.508 35.3244 108.684 35.3111C108.846 35.2974 108.981 35.2974 109.103 35.2838H109.13C109.224 35.2838 109.305 35.311 109.346 35.365C109.386 35.4189 109.4 35.4865 109.4 35.5677V36.4731ZM117.508 28.1764C117.508 28.2439 117.48 28.3115 117.426 28.3521C117.372 28.3924 117.305 28.4194 117.237 28.4194H114.873V36.6216C114.873 36.6891 114.845 36.7567 114.791 36.811C114.737 36.8649 114.67 36.8918 114.602 36.8918H113.264C113.197 36.8918 113.129 36.8649 113.075 36.811C113.021 36.7567 112.994 36.6891 112.994 36.6216V28.4194H110.63C110.562 28.4194 110.494 28.3924 110.44 28.3521C110.386 28.3115 110.359 28.2439 110.359 28.1764V27.1088C110.359 27.0413 110.386 26.9737 110.44 26.9198C110.494 26.8792 110.562 26.8522 110.63 26.8522H117.237C117.305 26.8522 117.372 26.8792 117.426 26.9198C117.48 26.9737 117.508 27.0413 117.508 27.1088V28.1764ZM120.737 36.6216C120.737 36.6891 120.71 36.7567 120.656 36.811C120.602 36.8649 120.534 36.8918 120.467 36.8918H119.129C119.061 36.8918 118.994 36.8649 118.94 36.811C118.886 36.7567 118.859 36.6891 118.859 36.6216V27.1088C118.859 27.0413 118.886 26.9737 118.94 26.9198C118.994 26.8792 119.061 26.8522 119.129 26.8522H120.467C120.534 26.8522 120.602 26.8792 120.656 26.9198C120.71 26.9737 120.737 27.0413 120.737 27.1088V36.6216ZM130.182 32.7842C130.182 33.5272 130.088 34.176 129.898 34.7029C129.696 35.2298 129.439 35.6622 129.088 36.0001C128.75 36.3379 128.344 36.5946 127.871 36.7567C127.412 36.9188 126.899 37 126.344 37C125.777 37 125.264 36.9188 124.804 36.7567C124.331 36.5946 123.926 36.3379 123.588 36.0001C123.25 35.6622 122.98 35.2298 122.791 34.7029C122.588 34.176 122.494 33.5272 122.494 32.7842V30.9598C122.494 30.2168 122.588 29.5817 122.791 29.0411C122.98 28.5142 123.25 28.0682 123.588 27.7303C123.926 27.3925 124.331 27.1495 124.804 26.987C125.264 26.8249 125.777 26.744 126.344 26.744C126.899 26.744 127.412 26.8249 127.871 26.987C128.344 27.1495 128.75 27.3925 129.088 27.7303C129.439 28.0682 129.696 28.5142 129.898 29.0411C130.088 29.5817 130.182 30.2168 130.182 30.9598V32.7842ZM128.304 30.9598C128.304 30.0544 128.142 29.406 127.817 28.9869C127.507 28.5818 127.007 28.3791 126.344 28.3791C125.669 28.3791 125.169 28.5818 124.858 28.9869C124.534 29.406 124.372 30.0544 124.372 30.9598V32.7842C124.372 33.6893 124.534 34.3381 124.858 34.7435C125.169 35.1623 125.669 35.365 126.344 35.365C127.007 35.365 127.507 35.1623 127.817 34.7435C128.142 34.3381 128.304 33.6893 128.304 32.7842V30.9598ZM139.546 36.3516C139.546 36.5001 139.492 36.6352 139.398 36.7297C139.29 36.8379 139.155 36.8918 139.006 36.8918H137.641C137.479 36.8918 137.33 36.8649 137.195 36.8243C137.046 36.784 136.925 36.6488 136.817 36.4055L133.817 29.8247C133.776 29.7571 133.736 29.7169 133.696 29.7169C133.655 29.7169 133.628 29.7571 133.628 29.8247V36.6216C133.628 36.6891 133.601 36.7567 133.56 36.811C133.506 36.8649 133.439 36.8918 133.371 36.8918H132.223C132.155 36.8918 132.087 36.8649 132.033 36.811C131.979 36.7567 131.952 36.6891 131.952 36.6216V27.3925C131.952 27.244 132.006 27.1088 132.114 27.0007C132.209 26.9061 132.344 26.8522 132.493 26.8522H133.952C134.101 26.8522 134.209 26.8792 134.303 26.9331C134.385 26.987 134.465 27.1088 134.547 27.2846L137.695 34.2299C137.722 34.2975 137.763 34.3381 137.803 34.3381C137.844 34.3381 137.871 34.2975 137.871 34.2166V27.1088C137.871 26.9331 137.952 26.8522 138.128 26.8522H139.29C139.465 26.8522 139.546 26.9331 139.546 27.1088V36.3516Z" fill="#5C8EE6"></path>
    </g>
    <defs>
      <clipPath id="clip0_191_1668">
        <rect width="140" height="44" fill="white"></rect>
      </clipPath>
    </defs>
  </symbol>
  <symbol xmlns="http://www.w3.org/2000/svg" viewBox="0 0 24 24" id="phone">
    <path d="M19.9688 16.0822L19.2188 19.2384C19.125 19.7072 18.75 20.0197 18.2812 20.0197C10.4062 19.9884 4 13.5822 4 5.70718C4 5.23843 4.28125 4.86343 4.75 4.76968L7.90625 4.01968C8.34375 3.92593 8.8125 4.17593 9 4.58218L10.4688 7.98843C10.625 8.39468 10.5312 8.86343 10.1875 9.11343L8.5 10.4884C9.5625 12.6447 11.3125 14.3947 13.5 15.4572L14.875 13.7697C15.125 13.4572 15.5938 13.3322 16 13.4884L19.4062 14.9572C19.8125 15.1759 20.0625 15.6447 19.9688 16.0822Z"></path>
  </symbol>
  <symbol fill="none" xmlns="http://www.w3.org/2000/svg" viewBox="0 0 36 36" id="speed">
    <path d="M11.625 13.875C10.6406 13.875 9.875 14.6953 9.875 15.625C9.875 16.6094 10.6406 17.375 11.625 17.375C12.5547 17.375 13.375 16.6094 13.375 15.625C13.375 14.6953 12.5547 13.875 11.625 13.875ZM17.75 6C9.05469 6 2 13.0547 2 21.75C2 24.6484 2.76562 27.3828 4.13281 29.6797C4.40625 30.2266 5.00781 30.5547 5.60938 30.5547H29.8359C30.4375 30.5547 31.0391 30.2266 31.3672 29.6797C32.6797 27.3828 33.5 24.6484 33.5 21.75C33.5 13.0547 26.4453 6 17.75 6ZM17.75 27.875C16.4922 27.875 15.5625 26.9453 15.5625 25.6875C15.5625 24.4844 16.4922 23.5 17.75 23.5C18.9531 23.5 19.9375 24.4844 19.9375 25.6875C19.9375 26.9453 18.9531 27.875 17.75 27.875ZM29.3438 27.875H22.0156C22.3438 27.2188 22.5625 26.5078 22.5625 25.6875C22.5625 25.3594 22.5078 25.0312 22.3984 24.7031L27.4297 22.5703C28.0859 22.2422 28.4141 21.4766 28.1406 20.8203C27.8125 20.1641 27.0469 19.8359 26.3906 20.1094L21.1953 22.3516C20.3203 21.4766 19.0625 20.875 17.75 20.875C15.0703 20.875 12.9375 23.0625 12.9375 25.6875C12.9375 26.5078 13.1016 27.2188 13.4844 27.875H6.10156C5.11719 26.0156 4.625 23.9375 4.625 21.75C4.625 14.5312 10.4766 8.625 17.75 8.625C24.9688 8.625 30.875 14.5312 30.875 21.75C30.875 23.9375 30.3281 26.0156 29.3438 27.875ZM9 20C8.01562 20 7.25 20.8203 7.25 21.75C7.25 22.7344 8.01562 23.5 9 23.5C9.92969 23.5 10.75 22.7344 10.75 21.75C10.75 20.8203 9.92969 20 9 20ZM17.75 11.25C16.7656 11.25 16 12.0703 16 13C16 13.9844 16.7656 14.75 17.75 14.75C18.6797 14.75 19.5 13.9844 19.5 13C19.5 12.0703 18.6797 11.25 17.75 11.25ZM23.875 13.875C22.8906 13.875 22.125 14.6953 22.125 15.625C22.125 16.6094 22.8906 17.375 23.875 17.375C24.8047 17.375 25.625 16.6094 25.625 15.625C25.625 14.6953 24.8047 13.875 23.875 13.875Z" fill="#5C8EE6"></path>
  </symbol>
  <symbol fill="none" xmlns="http://www.w3.org/2000/svg" viewBox="0 0 36 36" id="time">
    <path d="M20.125 5.75H20.3438C20.6719 5.75 21 5.47656 21 5.09375V4.65625C21 4.32812 20.6719 4 20.3438 4H0.65625C0.273438 4 0 4.32812 0 4.65625V5.09375C0 5.47656 0.273438 5.75 0.65625 5.75H0.875C0.875 10.7812 3.28125 16.3594 7.92969 18C3.22656 19.6953 0.875 25.2734 0.875 30.25H0.65625C0.273438 30.25 0 30.5781 0 30.9062V31.3438C0 31.7266 0.273438 32 0.65625 32H20.3438C20.6719 32 21 31.7266 21 31.3438V30.9062C21 30.5781 20.6719 30.25 20.3438 30.25H20.125C20.125 25.2734 17.6641 19.6953 13.0156 18C17.7188 16.3594 20.125 10.7812 20.125 5.75ZM2.625 5.75H18.375C18.375 11.8203 14.8203 16.6875 10.5 16.6875C6.125 16.6875 2.625 11.8203 2.625 5.75ZM18.375 30.25H2.625C2.625 24.2344 6.125 19.3125 10.5 19.3125C14.8203 19.3125 18.375 24.2344 18.375 30.25ZM14.7109 12.0391C15.0391 11.6562 14.7109 11 14.1641 11H6.78125C6.23438 11 5.90625 11.6562 6.23438 12.0391C6.34375 12.2031 6.45312 12.3672 6.61719 12.5312C6.72656 12.6953 6.89062 12.75 7.10938 12.75H13.8359C14.0547 12.75 14.2188 12.6953 14.3281 12.5312C14.4922 12.3672 14.6016 12.2031 14.7109 12.0391ZM5.35938 26.75C5.03125 26.75 4.8125 26.9688 4.70312 27.2422C4.70312 27.4062 4.64844 27.5703 4.59375 27.7344C4.53906 28.1172 4.8125 28.5 5.25 28.5H15.6953C16.1328 28.5 16.4062 28.1172 16.3516 27.7344C16.2969 27.5703 16.2422 27.4062 16.2422 27.2422C16.1328 26.9688 15.9141 26.75 15.5859 26.75H5.35938Z" fill="#5C8EE6"></path>
  </symbol>
  <symbol viewBox="0 0 36 24" fill="none" xmlns="http://www.w3.org/2000/svg" id="arrow-prev">
<path d="M10.1616 4.68629L10.8687 5.3934L4.41405 11.848L33 11.8479L32.9997 12.8482L4.42381 12.848L10.8687 19.2929L10.1616 20L3.00959 12.848H2.99993V12.8383L2.50473 12.3431L10.1616 4.68629Z" fill="white"/>
</symbol>
<symbol viewBox="0 0 36 24" fill="none" xmlns="http://www.w3.org/2000/svg" id="arrow-next"> 
<path d="M25.8384 4.68629L25.1313 5.3934L31.5859 11.848L3 11.8479L3.00035 12.8482L31.5762 12.848L25.1313 19.2929L25.8384 20L32.9904 12.848H33.0001V12.8383L33.4953 12.3431L25.8384 4.68629Z" fill="white"/>
</symbol>

</svg>